<svg width="60" height="60" viewBox="0 0 60 60" fill="none" xmlns="http://www.w3.org/2000/svg">
<path d="M57.5 30C57.5 45.1878 45.1878 57.5 30 57.5C14.8122 57.5 2.5 45.1878 2.5 30C2.5 14.8122 14.8122 2.5 30 2.5C45.1878 2.5 57.5 14.8122 57.5 30Z" fill="#FD80C1" stroke="#FB1A8F" stroke-width="5"/>
<g clip-path="url(#clip0_2277_1709)">
<path d="M39.8035 43.9999H33.3363L30.2918 43.3095L27.2473 43.9999H20.78C20.327 43.9999 19.9597 43.6326 19.9597 43.1796V25.9226H40.6238V43.1796C40.6238 43.6326 40.2565 43.9999 39.8035 43.9999V43.9999Z" fill="#FEFEFE"/>
<path d="M39.6958 25.9226C39.1833 25.9226 38.7678 26.3381 38.7678 26.8506V41.3236C38.7678 41.7766 38.4005 42.1439 37.9475 42.1439H20.9954C20.4234 42.1439 19.9597 42.6076 19.9597 43.1796V43.1796C19.9597 43.6326 20.327 43.9999 20.78 43.9999H26.2154C26.9012 43.9999 27.5848 43.9233 28.2536 43.7717V43.7717C29.5953 43.4674 30.9882 43.4674 32.33 43.7717V43.7717C32.9988 43.9233 33.6824 43.9999 34.3682 43.9999H39.8035C40.2565 43.9999 40.6238 43.6326 40.6238 43.1796V26.8506C40.6238 26.3381 40.2083 25.9226 39.6958 25.9226V25.9226Z" fill="#FEFEFE"/>
<path d="M27.2473 25.9226H33.3364V43.9999H27.2473V25.9226Z" fill="#FEFEFE"/>
<path d="M27.2473 42.1438H33.3364V43.9999H27.2473V42.1438Z" fill="#FEFEFE"/>
<path d="M20.4954 21.0944L24.1759 24.0857H27.9653L24.2047 19.1842L20.4954 21.0944Z" fill="#FEFEFE"/>
<path d="M24.2045 19.1842L22.1628 20.2356L25.1168 24.0857H27.9651L24.2045 19.1842Z" fill="#FEFEFE"/>
<path d="M40.0874 21.0944L36.4068 24.0857H32.6174L36.3781 19.1842L40.0874 21.0944Z" fill="#FEFEFE"/>
<path d="M38.8363 20.4502L34.363 24.0857H36.4067L40.0872 21.0944L38.8363 20.4502Z" fill="#FEFEFE"/>
<path d="M22.5448 16.0321L24.7007 16.7528C25.788 17.1162 26.6979 17.8768 27.2484 18.8823L29.0141 22.1079L27.9653 24.0857L25.2625 22.2537C24.6482 21.8373 23.9414 21.5775 23.2036 21.497L20.8302 21.2382C20.4296 21.1945 20.1759 20.7872 20.3133 20.4084L21.7634 16.4097C21.8784 16.0927 22.225 15.9252 22.5448 16.0321V16.0321Z" fill="#FEFEFE"/>
<path d="M21.4879 17.246L23.6438 17.9667C24.731 18.3301 25.6409 19.0907 26.1914 20.0962L28.1697 23.7L29.014 22.1079L27.2483 18.8823C26.6978 17.8768 25.7879 17.1162 24.7006 16.7528L22.5447 16.0321C22.2249 15.9252 21.8783 16.0927 21.7634 16.4096L21.4626 17.2389C21.4711 17.2413 21.4795 17.2432 21.4879 17.246V17.246Z" fill="#FEFEFE"/>
<path d="M38.0389 16.0321L35.8829 16.7528C34.7957 17.1162 33.8858 17.8768 33.3353 18.8823L31.5696 22.1079L32.6184 24.0857L35.3211 22.2537C35.9354 21.8373 36.6423 21.5775 37.3801 21.497L39.7535 21.2382C40.154 21.1945 40.4078 20.7872 40.2704 20.4084L38.8203 16.4096C38.7053 16.0927 38.3587 15.9252 38.0389 16.0321V16.0321Z" fill="#FEFEFE"/>
<path d="M40.2704 20.4084L38.8203 16.4097C38.7053 16.0928 38.3587 15.9252 38.039 16.0321L37.1289 16.3363L38.9388 21.327L39.7535 21.2381C40.154 21.1945 40.4077 20.7871 40.2704 20.4084V20.4084Z" fill="#FEFEFE"/>
<path d="M30.2919 19.1842C28.8959 19.1842 27.7642 20.3159 27.7642 21.7119V25.0008H32.8195V21.7119C32.8196 20.3159 31.6879 19.1842 30.2919 19.1842V19.1842Z" fill="#FEFEFE"/>
<path d="M30.2917 19.1842C30.0121 19.1842 29.7434 19.2303 29.4919 19.3141C30.4958 19.6489 31.2199 20.5955 31.2199 21.7119V25.0008H32.8195V21.7119C32.8195 20.3159 31.6878 19.1842 30.2917 19.1842V19.1842Z" fill="#FEFEFE"/>
<path d="M41.9504 29.5088H40.6239L39.6844 29.1283L38.7679 29.5088H33.3364L30.2919 28.8668L27.2473 29.5088H18.6333C18.2709 29.5088 17.9771 29.2149 17.9771 28.8525V24.2754C17.9771 23.913 18.2709 23.6191 18.6333 23.6191H41.9504C42.3128 23.6191 42.6066 23.913 42.6066 24.2754V28.8525C42.6067 29.215 42.3128 29.5088 41.9504 29.5088Z" fill="#FEFEFE"/>
<path d="M41.9504 23.6193H40.7143V26.9135C40.7143 27.3018 40.3995 27.6165 40.0113 27.6165H17.9771V28.8526C17.9771 29.215 18.2709 29.5089 18.6333 29.5089H27.2473L30.2919 28.8669L33.3364 29.5088H41.9504C42.3128 29.5088 42.6066 29.215 42.6066 28.8526V24.2755C42.6067 23.913 42.3128 23.6193 41.9504 23.6193V23.6193Z" fill="#FEFEFE"/>
<path d="M27.2473 23.6193H33.3364V29.5089H27.2473V23.6193Z" fill="#FEFEFE"/>
<path d="M27.2473 27.6165H33.3364V29.5089H27.2473V27.6165Z" fill="#FEFEFE"/>
<path d="M31.4246 39.5174C31.4246 40.3652 30.7374 41.0525 29.8896 41.0525C29.0417 41.0525 28.3545 40.3652 28.3545 39.5174C28.3545 38.6696 29.0417 37.9823 29.8896 37.9823C30.7374 37.9823 31.4246 38.6696 31.4246 39.5174V39.5174Z" fill="#FD80C1"/>
<path d="M29.8895 37.2148C29.2547 37.2148 28.7382 36.6983 28.7382 36.0634V34.5284C28.7382 33.8936 29.2547 33.3771 29.8895 33.3771H30.657C31.0803 33.3771 31.4245 33.0329 31.4245 32.6095V32.2258C31.4245 31.591 30.908 31.0744 30.2733 31.0744C29.6385 31.0744 29.1219 31.591 29.1219 32.2258C29.1219 32.8605 28.6054 33.3771 27.9706 33.3771C27.3358 33.3771 26.8193 32.8605 26.8193 32.2258C26.8193 30.3211 28.3686 28.7719 30.2733 28.7719C32.1779 28.7719 33.7272 30.3211 33.7272 32.2258V32.6095C33.7272 34.1723 32.5528 35.4664 31.0408 35.6559V36.0634C31.0408 36.6983 30.5242 37.2148 29.8895 37.2148V37.2148Z" fill="#FD80C1"/>
<path d="M29.8896 40.2847C29.1761 40.2847 28.5805 39.7939 28.4089 39.1334C28.3768 39.257 28.3545 39.384 28.3545 39.5171C28.3545 40.3638 29.0429 41.0523 29.8896 41.0523C30.7362 41.0523 31.4246 40.3638 31.4246 39.5171C31.4246 39.384 31.4024 39.257 31.3702 39.1334C31.1986 39.7939 30.603 40.2847 29.8896 40.2847Z" fill="#FD80C1"/>
<path d="M29.1219 32.2256C29.1219 31.5909 29.6385 31.0743 30.2733 31.0743C30.8358 31.0743 31.3037 31.4804 31.4031 32.0145C31.4161 31.9589 31.4245 31.9013 31.4245 31.8418V31.4581C31.4245 30.8234 30.908 30.3068 30.2733 30.3068C29.6385 30.3068 29.1219 30.8234 29.1219 31.4581C29.1219 32.0929 28.6054 32.6094 27.9706 32.6094C27.433 32.6094 26.9839 32.2376 26.8577 31.7382C26.8351 31.8979 26.8193 32.0598 26.8193 32.2256C26.8193 32.8604 27.3358 33.377 27.9706 33.377C28.6054 33.377 29.1219 32.8604 29.1219 32.2256Z" fill="#FD80C1"/>
<path d="M31.0409 34.8883V35.2958C31.0409 35.9305 30.5243 36.4471 29.8895 36.4471C29.2548 36.4471 28.7383 35.9305 28.7383 35.2958V36.0633C28.7383 36.6981 29.2548 37.2146 29.8895 37.2146C30.5243 37.2146 31.0409 36.6981 31.0409 36.0633V35.6554C32.5529 35.4662 33.7273 34.1721 33.7273 32.609V32.2256C33.7273 32.1634 33.7211 32.1028 33.7181 32.0414C33.6228 33.5132 32.4881 34.7071 31.0409 34.8883V34.8883Z" fill="#FD80C1"/>
<path d="M29.5056 39.1337H30.2731V39.9012H29.5056V39.1337Z" fill="#FEFEFE"/>
</g>
<defs>
<clipPath id="clip0_2277_1709">
<rect width="28" height="28" fill="white" transform="translate(15.7666 15.9999)"/>
</clipPath>
</defs>
</svg>
