<svg width="50" height="21" viewBox="0 0 50 21" fill="none" xmlns="http://www.w3.org/2000/svg">
<path d="M0.548706 12.7147L9.73531 20.1808H19.1934L9.80711 7.94678L0.548706 12.7147Z" fill="#DCBAF6"/>
<path d="M9.80672 7.94678L4.71069 10.5711L12.0837 20.1808H19.193L9.80672 7.94678Z" fill="#DCBAF6"/>
<path d="M49.4504 12.7147L40.2639 20.1808H30.8057L40.1921 7.94678L49.4504 12.7147Z" fill="#DCBAF6"/>
<path d="M46.3847 11.0034L35.2781 20.1728H40.3522L49.4906 12.6282L46.3847 11.0034Z" fill="#DCBAF6"/>
<path d="M5.66375 0.0803807L11.0449 1.87916C13.7586 2.78632 16.0297 4.68474 17.4037 7.19454L21.811 15.2453L19.1931 20.1821L12.4472 15.6093C10.9139 14.57 9.14964 13.9216 7.30814 13.7207L1.38412 13.0746C0.384402 12.9656 -0.248951 11.9489 0.0939326 11.0035L3.71332 1.0229C4.00038 0.231757 4.86564 -0.186337 5.66375 0.0803807Z" fill="#DCBAF6"/>
<path d="M3.02618 3.11023L8.40736 4.90901C11.1211 5.81618 13.3921 7.7146 14.7661 10.2244L19.704 19.2192L21.8112 15.2453L17.404 7.19454C16.03 4.68474 13.7589 2.78632 11.0452 1.87916L5.66401 0.0803818C4.86591 -0.186336 4.00064 0.231758 3.71386 1.02277L2.96326 3.09263C2.98428 3.09863 3.0053 3.10327 3.02618 3.11023Z" fill="#DCBAF6"/>
<path d="M44.3363 0.0803819L38.9551 1.87916C36.2414 2.78633 33.9703 4.68475 32.5963 7.19454L28.1891 15.2454L30.807 20.1821L37.5529 15.6093C39.0862 14.57 40.8504 13.9216 42.6919 13.7207L48.6159 13.0746C49.6156 12.9656 50.249 11.9489 49.9061 11.0035L46.2866 1.02277C45.9997 0.231759 45.1344 -0.186336 44.3363 0.0803819Z" fill="#DCBAF6"/>
<path d="M49.906 11.0036L46.2866 1.02282C45.9996 0.231811 45.1344 -0.186419 44.3364 0.0804348L42.0649 0.839639L46.5824 13.2963L48.6159 13.0745C49.6155 12.9656 50.2488 11.9488 49.906 11.0036Z" fill="#DCBAF6"/>
<path d="M25.0007 5.6543C21.5163 5.6543 18.6917 8.47899 18.6917 11.9634V20.1723H31.3097V11.9634C31.3098 8.47899 28.4851 5.6543 25.0007 5.6543Z" fill="#DCBAF6"/>
<path d="M24.7966 5.69012C24.1031 5.69012 23.5909 5.88477 22.9673 6.09623C25.4569 6.94055 27.1847 9.06012 27.1847 11.876V20.1714H31.1519V11.876C31.1519 8.35485 28.2587 5.69012 24.7966 5.69012Z" fill="#DCBAF6"/>
</svg>
