<svg width="24" height="24" viewBox="0 0 24 24" fill="none" xmlns="http://www.w3.org/2000/svg">
<path d="M11.99 2C6.47 2 2 6.48 2 12C2 17.52 6.47 22 11.99 22C17.52 22 22 17.52 22 12C22 6.48 17.52 2 11.99 2Z" fill="#FFDF00"/>
<path d="M11.992 4C7.576 4 4 7.584 4 12C4 16.416 7.576 20 11.992 20C16.416 20 20 16.416 20 12C20 7.584 16.416 4 11.992 4Z" fill="#FDE74C"/>
<path d="M15.8621 17.368H13.2363L12.0002 17.0877L10.764 17.368H8.13824C7.9543 17.368 7.80518 17.2189 7.80518 17.0349V10.0283H16.1951V17.0349C16.1951 17.2189 16.046 17.368 15.8621 17.368Z" fill="white"/>
<path d="M15.8183 10.0283C15.6103 10.0283 15.4416 10.197 15.4416 10.4051V16.2814C15.4416 16.4653 15.2924 16.6144 15.1085 16.6144H8.22567C7.99344 16.6144 7.80518 16.8027 7.80518 17.0349C7.80518 17.2189 7.9543 17.368 8.13824 17.368H10.3451C10.6235 17.368 10.9011 17.3369 11.1726 17.2753C11.7174 17.1518 12.2829 17.1518 12.8277 17.2753C13.0992 17.3369 13.3768 17.368 13.6552 17.368H15.8621C16.046 17.368 16.1951 17.2189 16.1951 17.0349V10.4051C16.1951 10.197 16.0264 10.0283 15.8183 10.0283Z" fill="white"/>
<path d="M10.7642 10.0283H13.2364V17.368H10.7642V10.0283Z" fill="white"/>
<path d="M10.7642 16.6151H13.2364V17.3686H10.7642V16.6151Z" fill="white"/>
<path d="M8.02246 8.06831L9.51683 9.28282H11.0554L9.52851 7.29272L8.02246 8.06831Z" fill="white"/>
<path d="M9.52818 7.29272L8.69922 7.71962L9.89857 9.28282H11.055L9.52818 7.29272Z" fill="white"/>
<path d="M15.9772 8.06831L14.4829 9.28282H12.9443L14.4712 7.29272L15.9772 8.06831Z" fill="white"/>
<path d="M15.469 7.80695L13.6528 9.28302H14.4826L15.9769 8.06851L15.469 7.80695Z" fill="white"/>
<path d="M8.85442 6.01301L9.72977 6.30562C10.1712 6.45319 10.5406 6.762 10.7641 7.17027L11.4811 8.47988L11.0552 9.28293L9.95787 8.53908C9.70845 8.37001 9.42147 8.26455 9.12191 8.23186L8.15826 8.12677C7.99564 8.10903 7.89261 7.94365 7.94839 7.78987L8.53715 6.16633C8.58384 6.03764 8.72459 5.96963 8.85442 6.01301Z" fill="white"/>
<path d="M8.42528 6.50588L9.30062 6.79848C9.74206 6.94605 10.1115 7.25486 10.335 7.66313L11.1382 9.1263L11.481 8.47988L10.7641 7.17027C10.5406 6.762 10.1712 6.45319 9.72972 6.30562L8.85437 6.01301C8.72454 5.96963 8.58379 6.03764 8.53714 6.16631L8.41504 6.50301C8.41846 6.50399 8.42188 6.50474 8.42528 6.50588Z" fill="white"/>
<path d="M15.1452 6.01301L14.2699 6.30562C13.8284 6.45319 13.459 6.762 13.2355 7.17027L12.5186 8.47988L12.9444 9.28293L14.0417 8.53908C14.2912 8.37001 14.5782 8.26455 14.8777 8.23186L15.8414 8.12677C16.004 8.10903 16.107 7.94365 16.0512 7.78987L15.4625 6.16631C15.4158 6.03764 15.275 5.96963 15.1452 6.01301Z" fill="white"/>
<path d="M16.0514 7.78988L15.4626 6.16632C15.4159 6.03765 15.2752 5.96961 15.1454 6.01302L14.7759 6.13652L15.5107 8.16284L15.8415 8.12676C16.0041 8.10904 16.1071 7.94364 16.0514 7.78988Z" fill="white"/>
<path d="M11.9999 7.29272C11.4331 7.29272 10.9736 7.75221 10.9736 8.31902V9.65434H13.0262V8.31902C13.0262 7.75221 12.5667 7.29272 11.9999 7.29272Z" fill="white"/>
<path d="M12 7.29272C11.8865 7.29272 11.7774 7.31144 11.6753 7.34548C12.0829 7.48139 12.3769 7.86574 12.3769 8.31902V9.65434H13.0263V8.31902C13.0263 7.75221 12.5668 7.29272 12 7.29272Z" fill="white"/>
<path d="M16.7336 11.4849H16.195L15.8136 11.3304L15.4414 11.4849H13.2361L12 11.2243L10.7639 11.4849H7.26645C7.1193 11.4849 7 11.3656 7 11.2185V9.36008C7 9.21293 7.1193 9.09363 7.26645 9.09363H16.7336C16.8807 9.09363 17 9.21293 17 9.36008V11.2185C17 11.3656 16.8807 11.4849 16.7336 11.4849Z" fill="white"/>
<path d="M16.7336 9.09363H16.2317V10.4312C16.2317 10.5888 16.1039 10.7166 15.9463 10.7166H7V11.2185C7 11.3656 7.1193 11.4849 7.26645 11.4849H10.7639L12 11.2242L13.2361 11.4849H16.7336C16.8807 11.4849 17 11.3656 17 11.2184V9.36005C17 9.21291 16.8807 9.09363 16.7336 9.09363Z" fill="white"/>
<path d="M10.7642 9.09363H13.2364V11.4849H10.7642V9.09363Z" fill="white"/>
<path d="M10.7642 10.7166H13.2364V11.485H10.7642V10.7166Z" fill="white"/>
</svg>
