<svg width="35" height="35" viewBox="0 0 35 35" fill="none" xmlns="http://www.w3.org/2000/svg">
<path d="M33.5753 16.7826L18.2003 1.40758C17.5853 0.792581 16.7311 0.416748 15.7915 0.416748H3.83317C1.954 0.416748 0.416504 1.95425 0.416504 3.83341V15.7917C0.416504 16.7313 0.792337 17.5855 1.42442 18.2176L16.7994 33.5926C17.4144 34.2076 18.2686 34.5834 19.2082 34.5834C20.1478 34.5834 21.0019 34.2076 21.6169 33.5755L33.5753 21.6172C34.2073 21.0022 34.5832 20.148 34.5832 19.2084C34.5832 18.2688 34.1903 17.3976 33.5753 16.7826ZM6.39567 8.95841C4.97775 8.95841 3.83317 7.81383 3.83317 6.39591C3.83317 4.978 4.97775 3.83341 6.39567 3.83341C7.81359 3.83341 8.95817 4.978 8.95817 6.39591C8.95817 7.81383 7.81359 8.95841 6.39567 8.95841Z" fill="#FB1A8F"/>
</svg>
