<svg width="24" height="24" viewBox="0 0 24 24" fill="none" xmlns="http://www.w3.org/2000/svg">
<g clip-path="url(#clip0_956_1397)">
<path d="M2.4 12C2.4 12.76 1.884 13.42 1.128 13.76C0.408001 14.09 4.57221e-07 14.77 3.96899e-07 15.46L1.74846e-07 18C7.86805e-08 19.1 1.08 20 2.4 20L21.6 20C22.92 20 23.988 19.11 23.988 18.01L23.988 15.46C23.988 14.77 23.988 14.53 24 13.76C24 13.76 23.988 12.76 23.988 12C23.988 11.24 23.988 12 24 10.24C24 10.24 24 9.23 24 8.54L24 6C24 4.9 22.92 4 21.6 4L2.4 4C1.08 4 1.32008e-06 4.9 1.22392e-06 6L1.00186e-06 8.54C9.41543e-07 9.23 0.408002 9.91 1.128 10.24C1.884 10.58 2.4 11.24 2.4 12Z" fill="#FFDF00"/>
<path d="M4 12C4 12.57 3.57 13.065 2.94 13.32C2.34 13.5675 2 14.0775 2 14.595L2 16.5C2 17.325 3.4 18 4.5 18C4.5 18 5 17 6 17C7 17 7.57103 18 7.57103 18L20 18C21.1 18 21.99 17.3325 21.99 16.5075L21.99 14.595C21.99 14.0775 21.99 13.8975 22 13.32C22 13.32 21.99 12.57 21.99 12C21.99 11.43 21.99 12 22 10.68C22 10.68 22 9.9225 22 9.405L22 7.5C22 6.675 21.1 6 20 6L7.5 6C7.5 6 7 7 6 7C5 7 4.5 6 4.5 6C3.4 6 2 6.675 2 7.5L2 9.405C2 9.9225 2.34 10.4325 2.94 10.68C3.57 10.935 4 11.43 4 12Z" fill="#FDE74C"/>
<ellipse cx="6" cy="4.5" rx="1" ry="1.5" fill="white"/>
<ellipse cx="6" cy="9.5" rx="1" ry="1.5" fill="white"/>
<ellipse cx="6" cy="14.5" rx="1" ry="1.5" fill="white"/>
<ellipse cx="6" cy="19.5" rx="1" ry="1.5" fill="white"/>
<path d="M18.8621 17.368H16.2363L15.0002 17.0877L13.764 17.368H11.1382C10.9543 17.368 10.8052 17.2189 10.8052 17.0349V10.0283H19.1951V17.0349C19.1951 17.2189 19.046 17.368 18.8621 17.368Z" fill="white"/>
<path d="M18.8183 10.0283C18.6103 10.0283 18.4416 10.197 18.4416 10.4051V16.2814C18.4416 16.4653 18.2924 16.6144 18.1085 16.6144H11.2257C10.9934 16.6144 10.8052 16.8027 10.8052 17.0349C10.8052 17.2189 10.9543 17.368 11.1382 17.368H13.3451C13.6235 17.368 13.9011 17.3369 14.1726 17.2753C14.7174 17.1518 15.2829 17.1518 15.8277 17.2753C16.0992 17.3369 16.3768 17.368 16.6552 17.368H18.8621C19.046 17.368 19.1951 17.2189 19.1951 17.0349V10.4051C19.1951 10.197 19.0264 10.0283 18.8183 10.0283Z" fill="white"/>
<path d="M13.7642 10.0283H16.2364V17.368H13.7642V10.0283Z" fill="white"/>
<path d="M13.7642 16.6151H16.2364V17.3686H13.7642V16.6151Z" fill="white"/>
<path d="M11.0225 8.06831L12.5168 9.28282H14.0554L12.5285 7.29272L11.0225 8.06831Z" fill="white"/>
<path d="M12.5282 7.29272L11.6992 7.71962L12.8986 9.28282H14.055L12.5282 7.29272Z" fill="white"/>
<path d="M18.9772 8.06831L17.4829 9.28282H15.9443L17.4712 7.29272L18.9772 8.06831Z" fill="white"/>
<path d="M18.469 7.80695L16.6528 9.28302H17.4826L18.9769 8.06851L18.469 7.80695Z" fill="white"/>
<path d="M11.8544 6.01301L12.7298 6.30562C13.1712 6.45319 13.5406 6.762 13.7641 7.17027L14.4811 8.47988L14.0552 9.28293L12.9579 8.53908C12.7085 8.37001 12.4215 8.26455 12.1219 8.23186L11.1583 8.12677C10.9956 8.10903 10.8926 7.94365 10.9484 7.78987L11.5371 6.16633C11.5838 6.03764 11.7246 5.96963 11.8544 6.01301Z" fill="white"/>
<path d="M11.4253 6.50588L12.3006 6.79848C12.7421 6.94605 13.1115 7.25486 13.335 7.66313L14.1382 9.1263L14.481 8.47988L13.7641 7.17027C13.5406 6.762 13.1712 6.45319 12.7297 6.30562L11.8544 6.01301C11.7245 5.96963 11.5838 6.03764 11.5371 6.16631L11.415 6.50301C11.4185 6.50399 11.4219 6.50474 11.4253 6.50588Z" fill="white"/>
<path d="M18.1452 6.01301L17.2699 6.30562C16.8284 6.45319 16.459 6.762 16.2355 7.17027L15.5186 8.47988L15.9444 9.28293L17.0417 8.53908C17.2912 8.37001 17.5782 8.26455 17.8777 8.23186L18.8414 8.12677C19.004 8.10903 19.107 7.94365 19.0512 7.78987L18.4625 6.16631C18.4158 6.03764 18.275 5.96963 18.1452 6.01301Z" fill="white"/>
<path d="M19.0514 7.78988L18.4626 6.16632C18.4159 6.03765 18.2752 5.96961 18.1454 6.01302L17.7759 6.13652L18.5107 8.16284L18.8415 8.12676C19.0041 8.10904 19.1071 7.94364 19.0514 7.78988Z" fill="white"/>
<path d="M14.9999 7.29272C14.4331 7.29272 13.9736 7.75221 13.9736 8.31902V9.65434H16.0262V8.31902C16.0262 7.75221 15.5667 7.29272 14.9999 7.29272Z" fill="white"/>
<path d="M15 7.29272C14.8865 7.29272 14.7774 7.31144 14.6753 7.34548C15.0829 7.48139 15.3769 7.86574 15.3769 8.31902V9.65434H16.0263V8.31902C16.0263 7.75221 15.5668 7.29272 15 7.29272Z" fill="white"/>
<path d="M19.7336 11.4849H19.195L18.8136 11.3304L18.4414 11.4849H16.2361L15 11.2243L13.7639 11.4849H10.2664C10.1193 11.4849 10 11.3656 10 11.2185V9.36008C10 9.21293 10.1193 9.09363 10.2664 9.09363H19.7336C19.8807 9.09363 20 9.21293 20 9.36008V11.2185C20 11.3656 19.8807 11.4849 19.7336 11.4849Z" fill="white"/>
<path d="M19.7336 9.09363H19.2317V10.4312C19.2317 10.5888 19.1039 10.7166 18.9463 10.7166H10V11.2185C10 11.3656 10.1193 11.4849 10.2664 11.4849H13.7639L15 11.2242L16.2361 11.4849H19.7336C19.8807 11.4849 20 11.3656 20 11.2184V9.36005C20 9.21291 19.8807 9.09363 19.7336 9.09363Z" fill="white"/>
<path d="M13.7642 9.09363H16.2364V11.4849H13.7642V9.09363Z" fill="white"/>
<path d="M13.7642 10.7166H16.2364V11.485H13.7642V10.7166Z" fill="white"/>
</g>
<defs>
<clipPath id="clip0_956_1397">
<rect width="24" height="24" fill="white"/>
</clipPath>
</defs>
</svg>
